<svg xmlns="http://www.w3.org/2000/svg" viewBox="0 0 574.04 182.91"><defs><style>.cls-1{fill:#231f20;stroke:#231f20;stroke-miterlimit:10;stroke-width:2.81px;}.cls-2{fill:#ed1c24;}</style></defs><title>Asset 1</title><g id="Layer_2" data-name="Layer 2"><g id="Layer_1-2" data-name="Layer 1"><path class="cls-1" d="M26.67,104.27,53.53,83.75h9.52L25.61,112.1H17l3.38-28.56h9.1Z"/><path class="cls-1" d="M85,112.1,69.77,99.3l-5.55,7.51-.11.16a3,3,0,0,0-.1.53l-.48.79-2.64,3.81H51.26l4-5.6L67.86,88.94l4.24-5.4h9.73l-4.55,5.61-4.87,6.24L105,84.07h9.42L77.49,98.14l17,14Z"/><path class="cls-1" d="M148.94,87.35H135.51a10.78,10.78,0,0,0-6.77,1.8l-13.07,17.66a1.93,1.93,0,0,0-.21.9c0,.32.87.51,2.49.58h31.52l-3.39,3.81H116.89q-9.36,0-10.36-3.17a2.87,2.87,0,0,1,.21-2.43l12.59-17.56a19.42,19.42,0,0,1,9.83-5c1.17-.14,2.34-.24,3.52-.31s2.37-.11,3.57-.11h29.51l-3.6,3.81Z"/><path class="cls-1" d="M230,106.71l5.18-7.41h-29.3c-2.92,0-3.56-1.16-1.9-3.49l5.08-6.87q3.38-4.34,9.84-5c1.16-.14,2.33-.24,3.51-.31s2.37-.11,3.57-.11h29.41l-3.07,3.81H225.28a10.8,10.8,0,0,0-6.77,1.8l-4.86,6.24H243q4.76,0,2.32,3.38L240.94,105l-1.38,1.91q-2.81,5.17-15.76,5.18h-31l3.59-3.81,29,.06c2.15-.07,3.61-.55,4.39-1.43Z"/><path class="cls-1" d="M297.58,83.75h9.1l-4,5.5-4.87,5.82a11.32,11.32,0,0,1-8.88,4.34H278.75l-6.34,8.67-3.07,4h-8.25l9.2-12.8H259.71q-7.19.06-3.54-4.28l8.2-11.48h9.52L269.66,89l-4.55,6.24h23.16Z"/><path class="cls-1" d="M333,106.71l5.19-7.41H308.84c-2.92,0-3.56-1.16-1.9-3.49L312,88.94q3.38-4.34,9.83-5c1.17-.14,2.34-.24,3.52-.31s2.37-.11,3.57-.11h29.41l-3.07,3.81H328.2a10.8,10.8,0,0,0-6.77,1.8l-4.87,6.24h29.3c3.18,0,3.95,1.13,2.33,3.38L343.85,105l-1.37,1.91q-2.81,5.17-15.76,5.18h-31l3.59-3.81,29,.06c2.15-.07,3.61-.55,4.39-1.43Z"/><path class="cls-1" d="M393.09,87.35H391L372.89,112.1H364l17.77-24.75H364.64l2.75-3.81H409.8l-3,3.81Z"/><path class="cls-1" d="M444.55,87.35H431.12a10.78,10.78,0,0,0-6.77,1.8l-4.87,6.24H444l-3,3.91H416.84l-5.55,7.51-.11.16a3.43,3.43,0,0,0-.11.53c0,.6.83.86,2.49.79h31.52l-3.49,3.81H412.5q-9.36,0-10.36-3.17a2.87,2.87,0,0,1,.21-2.43l12.59-17.56a19.42,19.42,0,0,1,9.83-5c1.17-.14,2.34-.24,3.52-.31s2.37-.11,3.57-.11h29.3l-3.39,3.81Z"/><path class="cls-1" d="M498.34,89.15h-3l-16,22.95h-8.14L485.12,92l1.37-2.85H475.81l-13.06,17.66a1.35,1.35,0,0,0-.22.69L459,112.1h-9.41l4.23-5.6,12.58-17.56,3.92-5.4h41.46q6.13.9,5.5,5.71l-16,22.85h-9.63l12.38-17.19,2.06-2.85q2.07-2.91-3.65-2.91Z"/><path class="cls-1" d="M545.72,106.71l5.19-7.41h-29.3c-2.93,0-3.56-1.16-1.91-3.49l5.08-6.87q3.39-4.34,9.84-5c1.16-.14,2.33-.24,3.52-.31s2.36-.11,3.56-.11h29.41L568,87.35H541a10.8,10.8,0,0,0-6.77,1.8l-4.86,6.24h29.3q4.75,0,2.33,3.38L556.62,105l-1.38,1.91q-2.81,5.17-15.76,5.18h-31l3.6-3.81,29,.06c2.15-.07,3.62-.55,4.39-1.43Z"/><path class="cls-2" d="M165.67,50.64a106.26,106.26,0,0,0-135.28,0C49.72,40.08,73,33.92,98,33.92S146.33,40.08,165.67,50.64Z"/><path class="cls-2" d="M146.09,29.13A106.28,106.28,0,0,0,12.15,48.05C29.82,34.9,52,25.54,76.79,22S125.48,21.39,146.09,29.13Z"/><path class="cls-2" d="M131.44,10.66A106.27,106.27,0,0,0,0,42.63c16.29-14.82,37.44-26.3,61.77-32.22S110.16,5,131.44,10.66Z"/><path class="cls-2" d="M0,132.27a106.28,106.28,0,0,0,135.27,0C115.94,142.82,92.67,149,67.64,149S19.33,142.82,0,132.27Z"/><path class="cls-2" d="M19.57,153.77a106.28,106.28,0,0,0,134-18.91c-17.67,13.15-39.85,22.5-64.64,26S40.19,161.52,19.57,153.77Z"/><path class="cls-2" d="M34.23,172.24a106.28,106.28,0,0,0,131.44-32c-16.29,14.82-37.45,26.3-61.77,32.22S55.5,177.93,34.23,172.24Z"/></g></g></svg>